<?xml version="1.0" encoding="utf-8"?>
<!-- Generator: Adobe Illustrator 21.1.0, SVG Export Plug-In . SVG Version: 6.00 Build 0)  -->
<svg version="1.1" id="GamedevMI" xmlns="http://www.w3.org/2000/svg" xmlns:xlink="http://www.w3.org/1999/xlink" x="0px" y="0px"
	 viewBox="0 0 141.5 182.6" style="enable-background:new 0 0 141.5 182.6;" xml:space="preserve">
<style type="text/css">
	.st0{fill:#4D4D4F;}
	.st1{fill:#4D4D4F;stroke:#FFFFFF;stroke-miterlimit:10;}
	.st2{fill:#FFFFFF;stroke:#4D4D4F;stroke-miterlimit:10;}
	.st3{fill:#4D4D4F;stroke:#FFFFFF;stroke-width:1.0588;stroke-miterlimit:10;}
	.st4{fill:#FFFFFF;}
	.st5{fill:none;stroke:#4D4D4F;stroke-miterlimit:10;}
</style>
<g id="MI_-_LP">
	<path class="st0" d="M140.6,124.5c0.4-0.6,1-1,1-1.8c0-1.6-0.2-3.2-0.9-4.6c-0.5-0.9-1.8-1.5-1.9-2.6c-0.2-1.3-0.2-2.6-0.5-3.9
		c-0.4-1.6-0.4-3.1-0.4-4.7c0-2.9,0.1-5.7-0.4-8.5c-0.5-3-1.2-6-1.5-9c-0.1-0.8-0.3-1.5-0.3-2.3c-0.1-0.5-0.1-1-0.3-1.5
		c-0.5-1.2-0.9-2.6-1.6-3.7c-0.5-0.9-1.9-0.8-3-1.1c-0.6-0.2-1.1-0.2-1.5-0.7c-0.8-0.9-1.8-1.5-2.8-2.1c-1-0.5-2.5-1.1-3.5-0.4
		c-0.6,0.5-1,1.3-1.5,1.9c-0.5,0.6-0.6,0.8-1.3,1c-1.4,0.3-3.2,0.5-4.4,1.2c-0.8,0.4-1.3,0.9-1.9,1.5c-0.9,0.9-1.7,1.7-3,1.7
		c-0.7,0-1.3-0.2-1.3-1c0-1,0-2.1,0-3.1c0-0.7,0-1.4,0-2.1c0.1-1.6,0.7-3,1.3-4.5c0.4-1.2,0.5-2.2,0.5-3.4c0-1.2-0.4-2.4-0.5-3.6
		c0-0.9-0.1-1.9,0.5-2.7c0.6-0.8,0.8-1.9,0.8-3c0-0.9,0.5-1.4,0.5-2.2c0-1.5-0.3-2.7-0.2-4.4c0-0.8,0.4-2,0.8-2.7
		c0.4-0.6,0.8-1,0.9-1.6c0.1-0.7,0-1.5-0.2-2.1c-0.2-0.5-0.5-0.9-0.8-1.4c-0.4-0.6-0.8-1.6-0.7-2.3c0.1-0.6,0.4-1.1,0.4-1.7
		c0-0.9-0.7-1.6-1.3-2.2c-0.6-0.5-1.1-1.1-1.7-1.7c-0.5-0.5-0.6-0.5-1-1.2c-0.5-0.9-1.5-1.5-1.2-2.9c0.1-0.3,0.5-1.3,0.8-1.4
		c0.4-0.2,0.6-0.7,1-0.7c0.7,0.1,1.3,0.1,2,0.4c0.9,0.4,1.8,1.5,2.8,1.5c0.2-0.7-0.2-1.4-0.4-2.1c-0.2-0.9-0.2-1.9-0.7-2.7
		c-0.6-1.1-1.4-2-2.2-2.9c-0.7-0.9-1.4-1.5-0.9-2.6c0.3-0.6,0.9-1,0.6-1.7c-0.2-0.5-0.8-0.8-1.2-1c-0.3-0.2-0.6-0.5-0.9-0.8
		c-0.3-0.2-0.6-0.3-0.8-0.5c-0.3-0.2-0.4-0.4-0.7-0.6c-0.4-0.2-0.9-0.4-1.3-0.5c-0.3-0.1-0.7-0.2-1-0.2c-0.4,0-0.8,0.1-1.2,0
		c-0.2,0-0.7-0.2-0.8-0.3c-0.3-0.2-0.3-0.5-0.5-0.8c-0.3-0.4-0.9-0.7-1.3-1c-0.3-0.2-0.3-0.3-0.6-0.4c-0.4-0.1-0.8-0.3-1.2-0.3
		c-0.7-0.1-1.4,0-2.1-0.1c-0.8-0.2-1.2-0.4-1.7-1c-0.3-0.3-0.2-0.7-0.5-0.8c-0.4-0.2-1-1.2-1.5-1.4c-1-0.4-2-0.2-3-0.3
		c-1-0.1-2.6,0.4-3.4-0.3c-0.9-0.6,0.1-2-0.3-2.9c-0.7-1.3-2-2.3-2.9-3.4c-0.6-0.7-2-0.6-2.8-1c-0.8-0.4-1.2-0.3-2-0.1
		c-1,0.2-1.9-0.1-2.9-0.2c-1.1-0.1-1.4-0.6-2.4-1.1c-0.7-0.4-1.6-0.6-2.3-1c-0.4-0.2-0.6-0.6-1.1-0.9c-0.6-0.4-0.7-0.9-1.3-1.2
		C68,0.2,66.9,0,66,0c-0.5,0-1.1-0.1-1.6,0.2c-1,0.7-2,1.4-2.8,2.3c-0.5,0.6-1.1,1.3-1.7,1.8c-0.9,0.9-1.4,2.1-2.2,3.1
		c-0.7,0.8-1.4,1.9-1.8,2.8c-0.5,1.2-0.3,3.1,0.4,4.1c0.4,0.6,1.7,0.9,2.4,1.1c0.6,0.2,1.5-0.1,2.1,0.4c0.7,0.6-0.5,1.3-0.9,1.6
		c-0.4,0.3-0.6,0.6-1.1,0.6c-0.4,0-0.9,0-1.3,0c-1,0-1.9,0.3-2.9,0.4c-0.7,0.1-1.3-0.1-2,0.2c-0.7,0.3-1.5,0-2.1,0.5
		c-0.5,0.4-0.8,1-1.2,1.4c-0.3,0.3-0.5,0.8-1,1c-1.8,0.5-3.7,2.2-2.5,4.5c0.2,0.3,0.2,0.6,0.2,1c0,0.6,0.1,1.1,0.2,1.7
		c0.1,1,0.1,2.1,0.1,3.1c0,1.1-0.3,2.2-0.8,3.2c-0.2,0.5-0.3,0.7-0.3,1.2c0,0.3,0.4,0.8,0.3,1.2c-0.2,0.7-0.6,1.5-1,2.2
		c-0.1,0.2-0.4,0.5-0.5,0.8C44,40.7,44,41,43.9,41.3c-0.1,0.4-0.2,0.7-0.3,1.1c-0.1,0.5-0.5,0.8-0.7,1.3c-0.3,0.7-0.5,1.5-1,2.1
		c-0.3,0.4-1.1,0.8-1.3,0.1c-0.1-0.5,0.7-1.6,0-1.9c-0.9-0.4-1.6,2.5-2.3,2.8c-0.3,0.1-0.8-0.2-1-0.4c-0.3-0.3-0.3-0.4-0.3-0.9
		c0-0.7,0.2-1.3,0.3-2c0.2-0.8-0.2-1-0.3-1.6c-0.1-0.5,0-1.1,0.3-1.5c0.3-0.4,0.5-0.5,0.6-1c0-0.3,0-0.5,0-0.8c0-0.6,0-1.1-0.2-1.6
		c-0.2-0.6,0-1.3,0.1-1.8c0.2-0.6,0.8-1.1,1.2-1.6c0.4-0.5,0.8-0.9,0.3-1.5c-0.4-0.4-0.6-0.5-0.6-1.1c0-1.3,0.7-2.4,1.7-3.2
		c0.3-0.2,0.6-0.4,0.7-0.7c0.1-0.2,0.1-0.4,0.1-0.7c0.1-0.4,0.6-1-0.1-1.1c-0.3-0.1-0.8,0.3-1.1,0.4c-0.3,0.1-0.5,0.1-0.8,0.1
		c-0.7,0.2-1,0.4-1.4,0.9c-0.9,1-1.5,2.4-2.2,3.5c-0.2,0.4-0.6,0.7-1,0.9c-0.2,0.1-0.5,0.2-0.7,0.4c-0.3,0.4-0.5,1.3-0.7,1.8
		c-0.2,0.5-0.5,1.2-0.6,1.7c-0.1,0.5-0.1,0.9-0.3,1.4c-0.1,0.4-0.5,1.2-0.8,1.4c-0.3,0.1-0.5,0-0.8-0.1c-0.2-0.1-0.6,0-0.8-0.1
		c-0.4-0.2-0.3-1.2-1.1-1.1c-0.2,0-0.8,0.4-0.9,0.6c-0.3,0.4-0.4,0.7-0.7,1c-0.5,0.4-0.9,0.2-1.5,0.4c-0.5,0.1-0.8,0.6-1.1,1
		c-0.4,0.5-0.9,0.8-1,1.5c-0.1,0.7-0.2,1.3-0.2,2c0,0.6-0.2,1-0.2,1.6c0,0.5,0.1,1.1-0.1,1.5c-0.1,0.2-0.6,0.6-0.8,0.8
		c-0.4,0.3-1,0.3-1.5,0.5c-0.3,0.1-0.4,0.3-0.8,0.4c-0.2,0.1-0.5,0.2-0.7,0.2c-0.9,0.3-2.2,0.7-2.2,1.9c0,0.5,0,1.1,0.3,1.5
		c0.2,0.3,0.4,0.4,0.6,0.6c0.2,0.3,0.2,0.5,0.3,0.8c0.2,0.5,0.5,0.8,0.6,1.4c0,0.5,0.1,1.2,0,1.6c-0.1,0.5-0.4,1-0.6,1.5
		c-0.3,0.7-0.2,1,0,1.7c0.1,0.5,0.4,0.8,0.5,1.3c0.1,0.5,0,1.1,0,1.6c0,0.7,0,1.3-0.2,1.9c-0.1,0.5-0.3,1-0.4,1.6
		c-0.1,0.6-0.2,1.1-0.6,1.6c-0.4,0.5-0.7,1-1.1,1.5c-0.4,0.5-0.8,1.1-1.3,1.6c-0.4,0.4-0.9,0.6-1.3,1.1c-0.5,0.7-1,1.4-1.5,2.1
		c-0.5,0.7-1,1.2-1.6,1.9c-0.3,0.3-0.6,0.6-1,0.9c-0.3,0.2-0.8,0.5-0.9,0.8c-0.5,0.9,0.8,1.7,1.3,2.1c0.7,0.7,1.1,1.8,1.7,2.6
		c0.6,0.9,1.3,1.8,1.7,2.9c0.4,0.9,0.7,1.9,1.1,2.8c0.5,1,0.9,2,1.4,3c0.8,1.9,0.9,4,1.7,5.9c0.4,1,0.9,2,1.2,3.1
		c0.1,0.5,0.2,1.1,0.4,1.6c0.2,0.4,0.5,0.7,0.6,1.1c0.1,0.3,0.4,0.6,0.5,1c0.1,0.3,0,0.8,0,1.1c0,1-0.1,2.2,0,3.2
		c0.5,2.3-0.2,4.7,0.4,7c0.7,2.6,0.4,5.4,0.4,8c0,0.9,0.1,1.9,0,2.9c-0.1,0.7-0.4,1.3-0.7,2c-0.5,1.4-1.5,2.7-1.7,4.2
		c-0.1,0.9-0.2,1.7-0.2,2.6c0,0.3,0,0.6,0,0.9c0,0.3-0.1,0.5-0.2,0.8c-0.2,1.1,0.2,2.3-0.1,3.4c-0.1,0.3-0.2,0.5-0.2,0.9
		c0,0.3,0.1,0.6,0,0.9c-0.1,0.3-0.2,0.5-0.2,0.8c0,0.4,0,0.7,0,1c-0.1,0.5-0.2,1.1-0.3,1.6c-0.2,0.6-0.3,1.2-0.5,1.7
		c-0.4,0.9-0.7,1.9-1.1,2.8c-0.3,0.6-0.5,1.2-0.8,1.7c-0.3,0.5-0.4,1-0.6,1.4c-0.4,0.9-0.8,1.9-1.1,2.8c-0.3,0.7-0.7,1.4-1.2,2.1
		c-1.1,1.7-2.6,3.1-3.4,5c-0.8,1.9-1.8,3.7-2.5,5.6c-0.4,1-1,1.8-1.5,2.7c-0.4,0.8-0.9,1.6-1.5,2.2c-0.3,0.3-1.1,1.1-1.4,1.5
		c-0.2,0.2-1.1,0.8-1.3,0.9c-0.2,0.2-0.4,0.2-0.6,0.4c-0.1,0.1-0.2,0.2-0.4,0.3l63.4,0v7.1c0.2,0,0.4,0,0.6,0c0.6,0,2,0.2,2.6,0.2
		c2.2,0.1,4.3-0.3,6.5-0.2c1.9,0,3.6-0.3,5.4-0.7c2.4-0.5,4.7-0.7,7.1-1.1c2.7-0.4,5.5-0.8,8.1-1.5c1.5-0.4,3-0.9,4.5-1.3
		c1.8-0.5,3.7-1,5.6-1.3c1.6-0.3,3.1-0.3,4.7-0.4c0.3-1,0.6-1.9,0.8-3c0.3-1.5,1.5-2.7,2.5-3.8c0.9-0.9,2-1.9,2.6-3
		c0.7-1.3,0.8-1.8,1.8-3c0.3-0.3,1-1.3,1.2-1.8c0.2-0.4,0.7-2.1,0.8-2.4c0.3-1.3-0.6-1.8-0.3-3.2c0.2-0.9,0.5-1.6,1-2.4
		c0.4-0.6,1-1.2,1.4-1.9c0.7-1.1,1.2-1.9,2.7-2c0.4,0,1.1,0,1.4-0.2c0.1-0.1,0.3-0.4,0.4-0.6c0.7-0.8,1.3-1.7,1.8-2.7
		c0.7-1.3-0.3-3.1,0.5-4.4c0.6-0.9,1.7-0.4,2.3-1.1c0.5-0.6,0.1-1.7-0.5-2.1c-0.6-0.4-0.8-0.5-0.9-1.3c-0.1-1.1,0.8-1.6,1.7-2.2
		c0.9-0.7,1.5-1,2.7-1.1c0.9,0,2-0.1,2.1,0.9c0.1,0.9-0.6,1.6-1.2,2.2c-0.6,0.6-1.6,1.2-1.7,2.1c-0.1,0.8,0,1.7,0.8,1.9
		c0.7,0.3,1.9-0.1,2.5-0.4c1.1-0.5,2.5-1.6,3.1-2.6c0.4-0.6,0.6-1.5,0.9-2.2c0.7-1.8,0.9-3.6,1.1-5.5c0.1-1.2,0-2.4,0-3.6
		C140,126.1,140.1,125.2,140.6,124.5z"/>
</g>
<g id="Gamepad_-_Top_1_">
	<path class="st1" d="M111.2,61.4c0,0-0.1-5-4.2-6.4l-9.5-3.6c0,0-2-0.9-4.1-0.9h-3c0,0-2.9-0.1-3.9,0.9l-2.9,1.9
		c0,0-1.1,1.1-3.5,1.1L66,54.3l-14.2-0.1c-2.5,0-3.5-1.1-3.5-1.1l-2.9-1.9c-1-0.9-3.9-0.9-3.9-0.9h-3c-2.1,0-4.1,0.9-4.1,0.9
		L24.9,55c-4,1.4-4.2,6.4-4.2,6.4C19.5,61.7,42.9,71,42.9,71l23,0l0,0h0h0l0,0l23,0C89,71,112.4,61.7,111.2,61.4z"/>
</g>
<g id="Gamepad_-_Lower">
	<path class="st2" d="M128.3,100.5l-8.9-27.2c0,0-2.3-5.9-3.7-7.9c-1.5-1.9-2.3-3.4-4.4-4l-17.6-4.8c0,0-3-1.4-5.3,1.5l-9.5,10.2
		c0,0-0.8,1.6-3.3,1.6H66h-9.6c-2.4,0-3.3-1.6-3.3-1.6l-9.5-10.2c-2.4-2.9-5.3-1.5-5.3-1.5l-17.6,4.8c-2.1,0.6-2.9,2.1-4.4,4
		c-1.5,1.9-3.7,7.9-3.7,7.9l-8.9,27.2c-3,10.1-2.8,18.6-2.6,22.1s3,7.8,3,7.8s1.4,2.4,5.6,5.6s7.7-0.2,7.7-0.2l18.2-17.4
		c3.8-3.8,7.6-3.3,7.6-3.3H66h22.8c0,0,3.8-0.5,7.6,3.3l18.2,17.4c0,0,3.4,3.4,7.7,0.2c4.2-3.1,5.6-5.6,5.6-5.6s2.8-4.4,3-7.8
		S131.3,110.5,128.3,100.5z"/>
</g>
<g id="Controls">
	<circle class="st0" cx="33.1" cy="76.7" r="10.8"/>
	<circle class="st0" cx="49.6" cy="97.8" r="10.8"/>
	<circle class="st3" cx="33.1" cy="76.7" r="6"/>
	<circle class="st0" cx="82.8" cy="96.7" r="10.8"/>
	<circle class="st3" cx="82.8" cy="96.7" r="6"/>
	<polygon class="st4" points="57.3,96 51.4,96 51.4,90.2 47.8,90.2 47.8,96 41.9,96 41.9,99.7 47.8,99.7 47.8,105.5 51.4,105.5 
		51.4,99.7 57.3,99.7 	"/>
	<circle class="st0" cx="90.4" cy="76.7" r="4.7"/>
	<path class="st5" d="M112,74.6c0.3,0.6,0.5,1.3,0.5,2c0,2.4-1.9,4.3-4.3,4.3S104,79,104,76.7s1.9-4.3,4.3-4.3
		C109.9,72.4,111.3,73.3,112,74.6"/>
	<path class="st5" d="M103.5,83.2c0.3,0.6,0.5,1.3,0.5,2c0,2.4-1.9,4.3-4.3,4.3s-4.3-1.9-4.3-4.3s1.9-4.3,4.3-4.3
		C101.4,80.9,102.8,81.8,103.5,83.2"/>
	<circle class="st0" cx="99.8" cy="68.2" r="4.7"/>
</g>
<g id="Thumb_Palm">
	<path class="st0" d="M140.6,124.5c0.4-0.6,1-1,1-1.8c0-1.6-0.2-3.2-0.9-4.6c-0.5-0.9-1.8-1.5-1.9-2.6c-0.2-1.3-0.2-2.6-0.5-3.9
		c-0.4-1.6-0.4-3.1-0.4-4.7c0-2.9,0.1-5.7-0.4-8.5c-0.5-3-1.2-6-1.5-9c-0.1-0.8-0.3-1.5-0.3-2.3c-0.1-0.5-0.1-1-0.3-1.5
		c-0.5-1.2-0.9-2.6-1.6-3.7c-0.5-0.9-1.9-0.8-3-1.1c-0.6-0.2-1.1-0.2-1.5-0.7c-0.8-0.9-1.8-1.5-2.8-2.1c-1-0.5-2.5-1.1-3.5-0.4
		c-0.6,0.5-1,1.3-1.5,1.9c-0.5,0.6-0.6,0.8-1.3,1c-1.4,0.3-3.2,0.5-4.4,1.2c-0.8,0.4-1.3,0.9-1.9,1.5c-0.9,0.9-1.7,1.7-3,1.7
		c-0.2,0-0.3,0-0.5,0c-1.9,0.9-2.9,4-4.1,5.5c-1.6,1.9-3.6,3.2-5.3,5c-4,4.3-7,10.3-9.1,15.7c-1.2,3.1-1.8,6.2-5.1,7.8
		c-4,2-9,1.6-13.3,1.2c-6.6-0.6-12.7,0.1-19.3,0.3c-6.4,0.2-12.4-0.6-18.2,2.9c-5.1,3.1-9.7,7.4-14.4,10.9c-1,0.7-1.9,1.4-2.8,1.9
		c0,0.9,0.2,1.9,0,2.8c-0.1,0.3-0.2,0.5-0.2,0.9c0,0.3,0.1,0.6,0,0.9c-0.1,0.3-0.2,0.5-0.2,0.8c0,0.4,0,0.7,0,1
		c-0.1,0.5-0.2,1.1-0.3,1.6c-0.2,0.6-0.3,1.2-0.5,1.7c-0.4,0.9-0.7,1.9-1.1,2.8c-0.3,0.6-0.5,1.2-0.8,1.7c-0.3,0.5-0.4,1-0.6,1.4
		c-0.4,0.9-0.8,1.9-1.1,2.8c-0.3,0.7-0.7,1.4-1.2,2.1c-1.1,1.7-2.6,3.1-3.4,5c-0.8,1.9-1.8,3.7-2.5,5.6c-0.4,1-1,1.8-1.5,2.7
		c-0.4,0.8-0.9,1.6-1.5,2.2c-0.3,0.3-1.1,1.1-1.4,1.5c-0.2,0.2-1.1,0.8-1.3,0.9c-0.2,0.2-0.4,0.2-0.6,0.4c-0.1,0.1-0.2,0.2-0.4,0.3
		h63.4v7.1c0.2,0,0.4,0,0.6,0c0.6,0,2,0.2,2.6,0.2c2.2,0.1,4.3-0.3,6.5-0.2c1.9,0,3.6-0.3,5.4-0.7c2.4-0.5,4.7-0.7,7.1-1.1
		c2.7-0.4,5.5-0.8,8.1-1.5c1.5-0.4,3-0.9,4.5-1.3c1.8-0.5,3.7-1,5.6-1.3c1.6-0.3,3.1-0.3,4.7-0.4c0.3-1,0.6-1.9,0.8-3
		c0.3-1.5,1.5-2.7,2.5-3.8c0.9-0.9,2-1.9,2.6-3c0.7-1.3,0.8-1.8,1.8-3c0.3-0.3,1-1.3,1.2-1.8c0.2-0.4,0.7-2.1,0.8-2.4
		c0.3-1.3-0.6-1.8-0.3-3.2c0.2-0.9,0.5-1.6,1-2.4c0.4-0.6,1-1.2,1.4-1.9c0.7-1.1,1.2-1.9,2.7-2c0.4,0,1.1,0,1.4-0.2
		c0.1-0.1,0.3-0.4,0.4-0.6c0.7-0.8,1.3-1.7,1.8-2.7c0.7-1.3-0.3-3.1,0.5-4.4c0.6-0.9,1.7-0.4,2.3-1.1c0.5-0.6,0.1-1.7-0.5-2.1
		c-0.6-0.4-0.8-0.5-0.9-1.3c-0.1-1.1,0.8-1.6,1.7-2.2c0.9-0.7,1.5-1,2.7-1.1c0.9,0,2-0.1,2.1,0.9c0.1,0.9-0.6,1.6-1.2,2.2
		c-0.6,0.6-1.6,1.2-1.7,2.1c-0.1,0.8,0,1.7,0.8,1.9c0.7,0.3,1.9-0.1,2.5-0.4c1.1-0.5,2.5-1.6,3.1-2.6c0.4-0.6,0.6-1.5,0.9-2.2
		c0.7-1.8,0.9-3.6,1.1-5.5c0.1-1.2,0-2.4,0-3.6C140,126.1,140.1,125.2,140.6,124.5z"/>
</g>
</svg>
